<svg xmlns="http://www.w3.org/2000/svg" width="117.575" height="73.616" viewBox="0 0 117.575 73.616">
  <g id="Сгруппировать_21" data-name="Сгруппировать 21" transform="translate(0 0)">
    <g id="Сгруппировать_32" data-name="Сгруппировать 32" transform="translate(0 5.32)">
      <g id="Сгруппировать_28" data-name="Сгруппировать 28" transform="translate(55.013 0)">
        <g id="Сгруппировать_26" data-name="Сгруппировать 26" transform="translate(18.963)">
          <path id="Контур_113" data-name="Контур 113" d="M151.144,277.2l2.424-2.58a7.1,7.1,0,0,0,5.5-5.807l3.424-4.162-3.673,3.427a8.116,8.116,0,0,0-4.033,2.166,7.943,7.943,0,0,0-1.844,3.794l-1.307,1.39a7.456,7.456,0,0,0,.852-3.22,8.036,8.036,0,0,0-1.293-4.188l-.289-6.832-.377,6.816a8.019,8.019,0,0,0-1.4,4.164,8.155,8.155,0,0,0,1.433,4.4l-2.323,2.473a7.47,7.47,0,0,0,.851-3.222,8.015,8.015,0,0,0-1.294-4.186l-.289-6.834-.377,6.815a8.037,8.037,0,0,0-1.4,4.165,8.147,8.147,0,0,0,1.433,4.4l-2.323,2.472a7.46,7.46,0,0,0,.851-3.221,8.016,8.016,0,0,0-1.293-4.186l-.29-6.834-.376,6.816a8.034,8.034,0,0,0-1.4,4.164,8.152,8.152,0,0,0,1.433,4.4l-2.323,2.473a7.481,7.481,0,0,0,.852-3.222,8.019,8.019,0,0,0-1.295-4.186l-.289-6.833-.376,6.814a8.023,8.023,0,0,0-1.4,4.165,8.147,8.147,0,0,0,1.433,4.4l-2.323,2.473a7.453,7.453,0,0,0,.852-3.221,8.026,8.026,0,0,0-1.295-4.187l-.289-6.832-.377,6.815a8.011,8.011,0,0,0-1.4,4.164,8.144,8.144,0,0,0,1.433,4.4l-2.323,2.472a7.433,7.433,0,0,0,.851-3.22,8.009,8.009,0,0,0-1.293-4.186l-.289-6.832-.377,6.815a8.038,8.038,0,0,0-1.4,4.164,8.133,8.133,0,0,0,1.434,4.4l-10.429,11.1.622.583,10.384-11.052,3.4-3.614,3.4-3.615,3.4-3.614,3.4-3.615Z" transform="translate(-123.155 -261.19)" fill="#fff"/>
          <path id="Контур_114" data-name="Контур 114" d="M142.521,307.084a8.024,8.024,0,0,0,4.069-1.655l6.779-.8-6.836.135a8.025,8.025,0,0,0-4.26-1.032,8.3,8.3,0,0,0-4.513,2.019A8.31,8.31,0,0,0,142.521,307.084Z" transform="translate(-126.753 -271.668)" fill="#fff"/>
          <path id="Контур_115" data-name="Контур 115" d="M147.027,302.288a8.034,8.034,0,0,0,4.07-1.655l6.779-.8-6.836.136a8.019,8.019,0,0,0-4.261-1.032,8.311,8.311,0,0,0-4.513,2.02A8.3,8.3,0,0,0,147.027,302.288Z" transform="translate(-127.864 -270.486)" fill="#fff"/>
          <path id="Контур_116" data-name="Контур 116" d="M151.535,297.493a8.038,8.038,0,0,0,4.069-1.655l6.78-.8-6.838.136a8.023,8.023,0,0,0-4.26-1.031,8.3,8.3,0,0,0-4.512,2.018A8.293,8.293,0,0,0,151.535,297.493Z" transform="translate(-128.974 -269.305)" fill="#fff"/>
          <path id="Контур_117" data-name="Контур 117" d="M156.042,292.7a8.043,8.043,0,0,0,4.069-1.654l6.779-.8-6.837.136a8.008,8.008,0,0,0-4.26-1.031,8.287,8.287,0,0,0-4.512,2.018A8.294,8.294,0,0,0,156.042,292.7Z" transform="translate(-130.085 -268.123)" fill="#fff"/>
          <path id="Контур_118" data-name="Контур 118" d="M160.549,287.9a8.027,8.027,0,0,0,4.068-1.654l6.78-.8-6.837.136a8.011,8.011,0,0,0-4.259-1.032,8.3,8.3,0,0,0-4.511,2.018A8.29,8.29,0,0,0,160.549,287.9Z" transform="translate(-131.195 -266.942)" fill="#fff"/>
          <path id="Контур_119" data-name="Контур 119" d="M165.055,283.1a8.034,8.034,0,0,0,4.069-1.653l6.78-.8-6.838.136a8.014,8.014,0,0,0-4.259-1.031,8.3,8.3,0,0,0-4.513,2.019A8.307,8.307,0,0,0,165.055,283.1Z" transform="translate(-132.305 -265.76)" fill="#fff"/>
        </g>
        <g id="Сгруппировать_27" data-name="Сгруппировать 27" transform="translate(0 43.587)">
          <path id="Контур_120" data-name="Контур 120" d="M137.958,330.172l3.539,0a7.093,7.093,0,0,0,8,.031l5.378-.358-5.012-.327a8.106,8.106,0,0,0-4.34-1.453,7.934,7.934,0,0,0-4.027,1.256h-1.907a7.463,7.463,0,0,0,2.929-1.587,8.018,8.018,0,0,0,2.163-3.81l4.779-4.893-5.223,4.4a8.042,8.042,0,0,0-3.992,1.836,8.152,8.152,0,0,0-2.224,4.06l-3.392,0a7.448,7.448,0,0,0,2.929-1.586,8.01,8.01,0,0,0,2.163-3.811l4.779-4.893-5.223,4.4a8.044,8.044,0,0,0-3.991,1.835,8.147,8.147,0,0,0-2.225,4.061l-3.392,0a7.465,7.465,0,0,0,2.929-1.587,8.02,8.02,0,0,0,2.163-3.811l4.779-4.892-5.222,4.4a8.028,8.028,0,0,0-3.992,1.836,8.133,8.133,0,0,0-2.224,4.06l-3.392,0a7.474,7.474,0,0,0,2.929-1.587,8.016,8.016,0,0,0,2.163-3.811l4.777-4.892-5.22,4.394a8.016,8.016,0,0,0-3.992,1.836,8.133,8.133,0,0,0-2.225,4.061H119.75a7.462,7.462,0,0,0,2.929-1.586,8.027,8.027,0,0,0,2.163-3.813l4.778-4.892-5.221,4.4a8.022,8.022,0,0,0-3.991,1.835,8.136,8.136,0,0,0-2.225,4.061H114.79a7.427,7.427,0,0,0,2.929-1.586,8.026,8.026,0,0,0,2.163-3.811l4.778-4.892-5.221,4.4a8.023,8.023,0,0,0-3.992,1.835,8.137,8.137,0,0,0-2.225,4.06l-15.23.009,0,.852,15.165-.009,4.96,0,4.96,0,4.96,0,4.96,0Z" transform="translate(-97.992 -319.027)" fill="#fff"/>
          <path id="Контур_121" data-name="Контур 121" d="M120.41,338.212a8.022,8.022,0,0,0,3.993,1.83l5.227,4.39-4.783-4.886a8.013,8.013,0,0,0-2.168-3.81,8.3,8.3,0,0,0-4.562-1.9A8.3,8.3,0,0,0,120.41,338.212Z" transform="translate(-102.95 -322.675)" fill="#fff"/>
          <path id="Контур_122" data-name="Контур 122" d="M126.992,338.208a8.02,8.02,0,0,0,3.993,1.83l5.226,4.391-4.783-4.887a8.018,8.018,0,0,0-2.167-3.81,8.307,8.307,0,0,0-4.562-1.9A8.3,8.3,0,0,0,126.992,338.208Z" transform="translate(-104.572 -322.674)" fill="#fff"/>
          <path id="Контур_123" data-name="Контур 123" d="M133.573,338.205a8.044,8.044,0,0,0,3.993,1.83l5.227,4.391-4.784-4.887a8.01,8.01,0,0,0-2.167-3.809,8.294,8.294,0,0,0-4.562-1.9A8.3,8.3,0,0,0,133.573,338.205Z" transform="translate(-106.194 -322.673)" fill="#fff"/>
          <path id="Контур_124" data-name="Контур 124" d="M140.154,338.2a8.027,8.027,0,0,0,3.993,1.83l5.226,4.391-4.783-4.887a8.017,8.017,0,0,0-2.167-3.809,8.3,8.3,0,0,0-4.562-1.9A8.3,8.3,0,0,0,140.154,338.2Z" transform="translate(-107.815 -322.672)" fill="#fff"/>
          <path id="Контур_125" data-name="Контур 125" d="M146.735,338.2a8.035,8.035,0,0,0,3.993,1.831l5.227,4.39-4.782-4.887a8.017,8.017,0,0,0-2.167-3.809,8.309,8.309,0,0,0-4.562-1.9A8.294,8.294,0,0,0,146.735,338.2Z" transform="translate(-109.437 -322.671)" fill="#fff"/>
          <path id="Контур_126" data-name="Контур 126" d="M153.317,338.194a8.041,8.041,0,0,0,3.993,1.831l5.228,4.389-4.783-4.886a8.028,8.028,0,0,0-2.168-3.81,8.3,8.3,0,0,0-4.562-1.9A8.294,8.294,0,0,0,153.317,338.194Z" transform="translate(-111.058 -322.671)" fill="#fff"/>
        </g>
      </g>
      <g id="Сгруппировать_31" data-name="Сгруппировать 31" transform="translate(0 0)">
        <g id="Сгруппировать_29" data-name="Сгруппировать 29">
          <path id="Контур_127" data-name="Контур 127" d="M41.994,277.2l-2.423-2.58a7.1,7.1,0,0,1-5.5-5.807l-3.424-4.162,3.672,3.427a8.113,8.113,0,0,1,4.033,2.166,7.936,7.936,0,0,1,1.844,3.794l1.307,1.39a7.477,7.477,0,0,1-.852-3.22,8.043,8.043,0,0,1,1.293-4.188l.29-6.832.377,6.816A8.02,8.02,0,0,1,44,272.17a8.148,8.148,0,0,1-1.433,4.4l2.323,2.473a7.47,7.47,0,0,1-.85-3.222,8.008,8.008,0,0,1,1.293-4.186l.289-6.834L46,271.619a8.038,8.038,0,0,1,1.4,4.165,8.141,8.141,0,0,1-1.433,4.4l2.323,2.472a7.46,7.46,0,0,1-.852-3.221,8.009,8.009,0,0,1,1.294-4.186l.289-6.834.376,6.816a8.027,8.027,0,0,1,1.4,4.164,8.145,8.145,0,0,1-1.433,4.4l2.323,2.473a7.46,7.46,0,0,1-.852-3.222,8.013,8.013,0,0,1,1.294-4.186l.289-6.833.377,6.814a8.024,8.024,0,0,1,1.4,4.165,8.141,8.141,0,0,1-1.433,4.4l2.323,2.473a7.464,7.464,0,0,1-.851-3.221,8.019,8.019,0,0,1,1.295-4.187l.289-6.832.376,6.815a8.01,8.01,0,0,1,1.4,4.164,8.129,8.129,0,0,1-1.434,4.4l2.324,2.472a7.443,7.443,0,0,1-.852-3.22,8.008,8.008,0,0,1,1.294-4.186l.289-6.832.377,6.815a8.025,8.025,0,0,1,1.4,4.164,8.134,8.134,0,0,1-1.433,4.4l10.429,11.1-.621.583L58.977,295.275l-3.4-3.614-3.4-3.615-3.4-3.614-3.4-3.615Z" transform="translate(-26.385 -261.19)" fill="#fff"/>
          <path id="Контур_128" data-name="Контур 128" d="M58.375,307.084a8.024,8.024,0,0,1-4.069-1.655l-6.78-.8,6.837.135a8.021,8.021,0,0,1,4.26-1.032,8.306,8.306,0,0,1,4.513,2.019A8.31,8.31,0,0,1,58.375,307.084Z" transform="translate(-30.545 -271.668)" fill="#fff"/>
          <path id="Контур_129" data-name="Контур 129" d="M53.869,302.288a8.034,8.034,0,0,1-4.07-1.655l-6.779-.8,6.836.136a8.019,8.019,0,0,1,4.261-1.032,8.311,8.311,0,0,1,4.512,2.02A8.3,8.3,0,0,1,53.869,302.288Z" transform="translate(-29.435 -270.486)" fill="#fff"/>
          <path id="Контур_130" data-name="Контур 130" d="M49.362,297.493a8.041,8.041,0,0,1-4.07-1.655l-6.78-.8,6.837.136a8.027,8.027,0,0,1,4.26-1.031,8.3,8.3,0,0,1,4.513,2.018A8.3,8.3,0,0,1,49.362,297.493Z" transform="translate(-28.324 -269.305)" fill="#fff"/>
          <path id="Контур_131" data-name="Контур 131" d="M44.854,292.7a8.037,8.037,0,0,1-4.069-1.654l-6.78-.8,6.837.136a8.013,8.013,0,0,1,4.261-1.031,8.29,8.29,0,0,1,4.512,2.018A8.3,8.3,0,0,1,44.854,292.7Z" transform="translate(-27.214 -268.123)" fill="#fff"/>
          <path id="Контур_132" data-name="Контур 132" d="M40.349,287.9a8.027,8.027,0,0,1-4.069-1.654l-6.779-.8,6.836.136a8.015,8.015,0,0,1,4.259-1.032,8.3,8.3,0,0,1,4.512,2.018A8.3,8.3,0,0,1,40.349,287.9Z" transform="translate(-26.104 -266.942)" fill="#fff"/>
          <path id="Контур_133" data-name="Контур 133" d="M35.841,283.1a8.037,8.037,0,0,1-4.069-1.653l-6.779-.8,6.837.136a8.016,8.016,0,0,1,4.259-1.031,8.3,8.3,0,0,1,4.513,2.019A8.3,8.3,0,0,1,35.841,283.1Z" transform="translate(-24.993 -265.76)" fill="#fff"/>
        </g>
        <g id="Сгруппировать_30" data-name="Сгруппировать 30" transform="translate(5.678 43.587)">
          <path id="Контур_134" data-name="Контур 134" d="M49.445,330.172l-3.539,0a7.921,7.921,0,0,1-4.028,1.251,7.9,7.9,0,0,1-3.972-1.22l-5.379-.358,5.012-.327a8.106,8.106,0,0,1,4.341-1.453,7.939,7.939,0,0,1,4.027,1.256h1.907a7.47,7.47,0,0,1-2.93-1.587,8.031,8.031,0,0,1-2.163-3.81l-4.779-4.893,5.223,4.4a8.042,8.042,0,0,1,3.992,1.836,8.146,8.146,0,0,1,2.224,4.06l3.393,0a7.451,7.451,0,0,1-2.929-1.586,8.014,8.014,0,0,1-2.162-3.811L42.9,319.03l5.223,4.4a8.046,8.046,0,0,1,3.992,1.835,8.146,8.146,0,0,1,2.225,4.061l3.392,0a7.46,7.46,0,0,1-2.929-1.587,8.016,8.016,0,0,1-2.164-3.811l-4.778-4.892,5.221,4.4a8.027,8.027,0,0,1,3.993,1.836,8.145,8.145,0,0,1,2.224,4.06l3.392,0a7.472,7.472,0,0,1-2.929-1.587,8.014,8.014,0,0,1-2.162-3.811l-4.779-4.892,5.222,4.394a8.019,8.019,0,0,1,3.992,1.836,8.13,8.13,0,0,1,2.224,4.061h3.392a7.47,7.47,0,0,1-2.929-1.586,8.028,8.028,0,0,1-2.161-3.813l-4.779-4.892,5.222,4.4A8.022,8.022,0,0,1,67,325.268a8.133,8.133,0,0,1,2.224,4.061h3.393a7.422,7.422,0,0,1-2.929-1.586,8.013,8.013,0,0,1-2.163-3.811l-4.779-4.892,5.222,4.4a8.023,8.023,0,0,1,3.992,1.835,8.14,8.14,0,0,1,2.224,4.06l15.23.009v.852l-15.165-.009-4.96,0-4.96,0-4.96,0-4.96,0Z" transform="translate(-32.527 -319.027)" fill="#fff"/>
          <path id="Контур_135" data-name="Контур 135" d="M81.826,338.212a8.022,8.022,0,0,1-3.993,1.83l-5.228,4.39,4.783-4.886a8.026,8.026,0,0,1,2.168-3.81,8.3,8.3,0,0,1,4.562-1.9A8.3,8.3,0,0,1,81.826,338.212Z" transform="translate(-42.402 -322.675)" fill="#fff"/>
          <path id="Контур_136" data-name="Контур 136" d="M75.243,338.208a8.018,8.018,0,0,1-3.992,1.83l-5.227,4.391,4.784-4.887a8.011,8.011,0,0,1,2.167-3.81,8.3,8.3,0,0,1,4.562-1.9A8.3,8.3,0,0,1,75.243,338.208Z" transform="translate(-40.78 -322.674)" fill="#fff"/>
          <path id="Контур_137" data-name="Контур 137" d="M68.663,338.205a8.039,8.039,0,0,1-3.993,1.83l-5.228,4.391,4.784-4.887a8.007,8.007,0,0,1,2.168-3.809,8.293,8.293,0,0,1,4.562-1.9A8.3,8.3,0,0,1,68.663,338.205Z" transform="translate(-39.158 -322.673)" fill="#fff"/>
          <path id="Контур_138" data-name="Контур 138" d="M62.081,338.2a8.025,8.025,0,0,1-3.993,1.83l-5.227,4.391,4.783-4.887a8.02,8.02,0,0,1,2.168-3.809,8.3,8.3,0,0,1,4.562-1.9A8.3,8.3,0,0,1,62.081,338.2Z" transform="translate(-37.537 -322.672)" fill="#fff"/>
          <path id="Контур_139" data-name="Контур 139" d="M55.5,338.2a8.035,8.035,0,0,1-3.993,1.831l-5.227,4.39,4.783-4.887a8.017,8.017,0,0,1,2.167-3.809,8.307,8.307,0,0,1,4.562-1.9A8.3,8.3,0,0,1,55.5,338.2Z" transform="translate(-35.916 -322.671)" fill="#fff"/>
          <path id="Контур_140" data-name="Контур 140" d="M48.918,338.194a8.041,8.041,0,0,1-3.993,1.831L39.7,344.414l4.784-4.886a8.015,8.015,0,0,1,2.168-3.81,8.3,8.3,0,0,1,4.562-1.9A8.3,8.3,0,0,1,48.918,338.194Z" transform="translate(-34.294 -322.671)" fill="#fff"/>
        </g>
      </g>
    </g>
    <g id="Сгруппировать_33" data-name="Сгруппировать 33" transform="translate(26.262)">
      <path id="Контур_141" data-name="Контур 141" d="M64.107,258.3a37.821,37.821,0,0,0-.208,5.341l-.058,39.737c0,2.855,1.552,6.459,3.515,7.982,6.273,4.864,19.341,14.338,26,14.358s19.657-9.355,25.916-14.181c1.966-1.516,3.534-5.117,3.537-7.973l.058-39.738a26.443,26.443,0,0,0-.3-5.433,22.017,22.017,0,0,0-4.5-.262H68.5A31.176,31.176,0,0,0,64.107,258.3Z" transform="translate(-60.827 -255.117)" fill="#fff"/>
      <path id="Контур_142" data-name="Контур 142" d="M92.387,327.747h-.029c-7.054-.021-19.03-8.163-27.834-14.99-2.675-2.075-4.688-6.533-4.682-10.369l.058-39.737c.01-6.021.118-6.663,1.282-7.643.837-.708,1.23-.876,6.337-.876h49.556c5.312,0,5.771.393,6.465.988,1.008.855,1.36,1.473,1.353,7.725l-.058,39.74c0,3.836-2.03,8.288-4.711,10.355C111.362,319.694,99.44,327.747,92.387,327.747Zm-26.43-67.575c-.016.7-.027,1.538-.029,2.488L65.87,302.4a8.4,8.4,0,0,0,2.348,5.6c10.9,8.453,20.159,13.713,24.156,13.725l.011,3.014v-3.014c4,0,13.212-5.193,24.054-13.555a8.387,8.387,0,0,0,2.364-5.589l.058-39.739c0-1.057-.016-1.944-.041-2.653-.5-.014-1.084-.023-1.748-.023H67.518C66.933,260.16,66.412,260.164,65.957,260.172Z" transform="translate(-59.841 -254.131)" fill="#fff"/>
    </g>
    <g id="Сгруппировать_34" data-name="Сгруппировать 34" transform="translate(28.146 1.884)">
      <path id="Контур_143" data-name="Контур 143" d="M64.107,258.3a37.821,37.821,0,0,0-.208,5.341l-.058,39.737c0,2.855,1.552,6.459,3.515,7.982,6.273,4.864,19.341,14.338,26,14.358s19.657-9.355,25.916-14.181c1.966-1.516,3.534-5.117,3.537-7.973l.058-39.738a26.443,26.443,0,0,0-.3-5.433,22.017,22.017,0,0,0-4.5-.262H68.5A31.176,31.176,0,0,0,64.107,258.3Z" transform="translate(-62.711 -257.001)" fill="#fff"/>
      <path id="Контур_144" data-name="Контур 144" d="M93,326.479h-.024c-6.867-.02-19.666-9.153-26.685-14.6-2.222-1.724-3.958-5.623-3.953-8.877L62.4,263.27c.009-5.7.185-5.846.611-6.2.307-.261.512-.434,5.124-.434H117.69c4.615,0,4.976.309,5.239.535.359.3.7.595.695,6.292l-.058,39.738c0,3.254-1.751,7.149-3.978,8.866C112.606,317.446,99.869,326.479,93,326.479ZM64.753,258.958c-.047.829-.09,2.311-.093,4.314L64.6,303.01c0,2.545,1.405,5.79,3.078,7.087,11.555,8.961,20.779,14.108,25.306,14.121l.017,1.13v-1.13c4.525,0,13.711-5.083,25.2-13.946,1.676-1.292,3.094-4.535,3.1-7.08l.058-39.739c0-2.026-.065-3.62-.137-4.449-.675-.057-1.887-.113-3.536-.113H68.134C66.661,258.892,65.473,258.923,64.753,258.958Z" transform="translate(-62.341 -256.631)" fill="#7e5645"/>
    </g>
  </g>
</svg>
