<svg xmlns="http://www.w3.org/2000/svg" width="73.679" height="53.705" viewBox="0 0 73.679 53.705">
  <g id="Сгруппировать_11" data-name="Сгруппировать 11" transform="translate(0 0)">
    <path id="Контур_80" data-name="Контур 80" d="M410.944,125.98V104H409.72v-.777a1.794,1.794,0,1,0-1.049,0V104h-1.228v3.945c-.657.021-1.315.011-1.966-.031-6.494-.42-11.586-2.8-15.129-7.076a12.9,12.9,0,0,0-6.253-4.214,38.961,38.961,0,0,0-19.047,0,12.894,12.894,0,0,0-6.257,4.218c-3.539,4.274-8.631,6.652-15.129,7.072-.647.042-1.308.052-1.965.031V104h-1.224v-.777a1.794,1.794,0,1,0-1.049,0V104H338.2v22.135a2.241,2.241,0,0,0-.409,1.3v7.3a2.255,2.255,0,0,0,.36,1.224h72.958a2.254,2.254,0,0,0,.36-1.224v-7.3A2.255,2.255,0,0,0,410.944,125.98Zm-69.247-.819v-4.2h1.815a26,26,0,0,1-.937,4.064l-.094.095,0,.042ZM363.9,101.932a.943.943,0,0,0-.672-.721,1.367,1.367,0,0,0-1.322,1.871,1.364,1.364,0,0,0,1.27.846h.021a1.48,1.48,0,0,0,1.238-.8,1.858,1.858,0,0,0,.091-1.623,2.217,2.217,0,0,0-.154-.308,1.909,1.909,0,0,0,.252.237,1.845,1.845,0,0,0,1.577.378,1.472,1.472,0,0,0,1.123-.959,1.371,1.371,0,0,0-.44-1.479,1.309,1.309,0,0,0-1.462-.147c-.311.189-.685.5-.71.878a.958.958,0,0,0,.475.839,1.8,1.8,0,0,0,.171.091l.283-.64c-.164-.074-.234-.189-.234-.234a1.034,1.034,0,0,1,.371-.332.617.617,0,0,1,.672.094.679.679,0,0,1,.206.721.818.818,0,0,1-.626.493,1.109,1.109,0,0,1-.857-.171.787.787,0,0,1-.119-.08,1.279,1.279,0,0,1-.486-1.109,1.128,1.128,0,0,1,.682-.752,1.493,1.493,0,0,1,1.14-.035,2.263,2.263,0,0,1,1.3,1.438,3.163,3.163,0,0,1-.349,2.763,1.222,1.222,0,0,0-.178-.34,1.287,1.287,0,0,0-1.025-.514,1.258,1.258,0,0,0-.759.252,1.277,1.277,0,0,0-.263,1.784,1.233,1.233,0,0,0,.263.262,3.169,3.169,0,0,1-2.7-.475,2.248,2.248,0,0,1-1-1.661,1.483,1.483,0,0,1,.361-1.084,1.126,1.126,0,0,1,.916-.434c.623.049.916.777.92.784a1.105,1.105,0,0,1,.052.161,1.087,1.087,0,0,1-.091.843.834.834,0,0,1-.65.462.67.67,0,0,1-.63-.406.607.607,0,0,1,.095-.665,1.106,1.106,0,0,1,.416-.265c.056.014.15.112.171.293l.693-.091A1.261,1.261,0,0,0,363.9,101.932Zm2.637,2.094s0,0,0,0l-.032.021,0,0a.019.019,0,0,1-.011.007l0,0c-.014.014-.028.024-.045.039a.586.586,0,0,1-.766-.14.575.575,0,0,1,.119-.8.559.559,0,0,1,.343-.115.573.573,0,0,1,.395.989Zm-4.28.689a3.555,3.555,0,0,0,1.8.706,3.076,3.076,0,0,0,.44.028,3.906,3.906,0,0,0,2.043-.559,2.388,2.388,0,0,0,.276-.2l0,0c.028-.017.056-.035.084-.056a.622.622,0,0,0,.07-.059,2.947,2.947,0,0,0,.315-.238,3.989,3.989,0,0,0,1.28-3.049h.93c.011.052.025.1.039.157a5.126,5.126,0,0,0,3.956,3.5,1.429,1.429,0,0,0-.144.209,38.018,38.018,0,0,0-8.278.976c-.13.031-.255.066-.378.1a1.418,1.418,0,0,0-.686-.36,1.5,1.5,0,0,0-.283-.028,1.4,1.4,0,0,0-1.4,1.347,19.991,19.991,0,0,0-3.315,2.315,1.012,1.012,0,0,0,.039-.185c.045-.392-.08-1.05-.6-1.151a.977.977,0,0,0-1.2,1.164l.672-.192a.347.347,0,0,1,.094-.234.284.284,0,0,1,.266-.067.637.637,0,0,1,.074.4c-.032.283-.4.4-.577.412a.633.633,0,0,1-.661-.412,1.388,1.388,0,0,1,.031-1.063l-.021-.011a25.7,25.7,0,0,0,4.7-3.833A3.8,3.8,0,0,0,362.261,104.716Zm17.336-3.27c.014-.052.032-.1.042-.157h.839a4,4,0,0,0,1.284,3.049,2.1,2.1,0,0,0,.287.217c.007,0,.01.011.017.014a.748.748,0,0,0,.08.066c.028.021.056.039.084.06a0,0,0,0,1,0,0,2.176,2.176,0,0,0,.277.192,3.963,3.963,0,0,0,2.672.507,3.514,3.514,0,0,0,1.612-.682,3.644,3.644,0,0,0,.437-.388,25.666,25.666,0,0,0,4.777,3.889l-.025.011a1.386,1.386,0,0,1,.032,1.063.643.643,0,0,1-.661.413c-.175-.014-.549-.13-.581-.413a1.06,1.06,0,0,1,.045-.384c.2-.039.273.032.293.052a.34.34,0,0,1,.1.224l.671.2a.977.977,0,0,0-1.2-1.164c-.525.1-.651.759-.605,1.151a.694.694,0,0,0,.021.122,19.953,19.953,0,0,0-3.294-2.3,1.4,1.4,0,0,0-1.4-1.347c-.049,0-.1,0-.144.007a1.4,1.4,0,0,0-.826.381c-.126-.035-.252-.07-.381-.1a37.988,37.988,0,0,0-8.275-.976,1.123,1.123,0,0,0-.147-.209A5.125,5.125,0,0,0,379.6,101.446Zm4.1-.409a.99.99,0,0,0,.643-.93c-.021-.381-.4-.689-.706-.878a1.308,1.308,0,0,0-1.462.147,1.366,1.366,0,0,0-.441,1.479,1.461,1.461,0,0,0,1.123.959,1.844,1.844,0,0,0,1.577-.378,1.906,1.906,0,0,0,.252-.237,2.454,2.454,0,0,0-.158.308,1.873,1.873,0,0,0,.091,1.623,1.481,1.481,0,0,0,1.242.8,1.36,1.36,0,0,0,1.291-.846,1.37,1.37,0,0,0-1.322-1.871.953.953,0,0,0-.675.721,1.271,1.271,0,0,0-.032.164l.693.091a.363.363,0,0,1,.161-.293.983.983,0,0,1,.423.262.6.6,0,0,1,.1.668.673.673,0,0,1-.622.406h-.007a.823.823,0,0,1-.65-.462,1.071,1.071,0,0,1-.091-.843,1.105,1.105,0,0,1,.052-.161c0-.007.294-.734.919-.784a1.141,1.141,0,0,1,.916.434,1.513,1.513,0,0,1,.36,1.084,2.253,2.253,0,0,1-1,1.661,3.155,3.155,0,0,1-2.7.472,1.173,1.173,0,0,0,.266-.259,1.275,1.275,0,0,0-2.046-1.521,1.365,1.365,0,0,0-.182.34,3.175,3.175,0,0,1-.346-2.763,2.247,2.247,0,0,1,1.3-1.438,1.5,1.5,0,0,1,1.141.035,1.13,1.13,0,0,1,.678.752,1.278,1.278,0,0,1-.483,1.109,1.443,1.443,0,0,1-.294.175,1.017,1.017,0,0,1-.682.077.817.817,0,0,1-.626-.493.673.673,0,0,1,.206-.721.61.61,0,0,1,.661-.1,1.153,1.153,0,0,1,.378.321c0,.06-.066.175-.234.249Zm-1.353,2.658a.565.565,0,0,1,.1-.427.578.578,0,0,1,.465-.231.561.561,0,0,1,.343.115.572.572,0,0,1-.64.948.621.621,0,0,1-.052-.042l0,.007a.054.054,0,0,1-.014-.011l0,0c-.007-.007-.017-.011-.024-.017A.535.535,0,0,1,382.34,103.695Zm21.239,8.824a2.857,2.857,0,0,1-1.2.21c-.245,0-.5-.014-.787-.028-.175-.011-.36-.021-.556-.028-1.015-.035-1.858.007-3.043.063-.78.039-1.7.084-2.9.123a26.987,26.987,0,0,1-3.864-2.469.564.564,0,0,0,.074.011.916.916,0,0,0,.1,0,1.332,1.332,0,0,0,1.256-.84,1.921,1.921,0,0,0,.14-.864A31.525,31.525,0,0,0,403.579,112.518Zm2.539,11.055c-.161-.2-.171-.252-.231-1.053-.028-.367-.063-.867-.133-1.559h1.689v4.2h-.892A1.547,1.547,0,0,0,406.118,123.574Zm-.49-3.682c-.07-.528-.136-.99-.2-1.406-.084-.587-.154-1.07-.192-1.5l.157.011c.458.024.927.039,1.389.039.217,0,.437,0,.657-.011v2.885h-1.812C405.632,119.9,405.628,119.9,405.628,119.891Zm1.815-4.26c-.661.014-1.322.007-1.972-.028l-.185-.011c0-.011,0-.024.007-.035a7.552,7.552,0,0,1,.346-1.165,1.717,1.717,0,0,0,.769-1.049,1.019,1.019,0,0,0-.021-.483c.427.032.78.049,1.056.06Zm-27.814-3.078a6.57,6.57,0,0,0-1.965-.447,1.411,1.411,0,0,0-.825.217,1.291,1.291,0,0,0-.5,1.129,1.723,1.723,0,0,0,.455,1.091c.364.427.78,2.5.584,5.134-.008.077-.014.158-.021.234H375.1V107.143a1.431,1.431,0,0,0,.678-.581,36.647,36.647,0,0,1,7.953.93c.112.028.22.056.328.087a1.4,1.4,0,0,0,.832.962V112.9a25.274,25.274,0,0,1-5.179-.315Zm-7.722,7.338c-.07-.528-.136-.99-.2-1.406a8.64,8.64,0,0,1-.14-2.927,7.57,7.57,0,0,1,.346-1.165,1.729,1.729,0,0,0,.769-1.049.975.975,0,0,0-.175-.787,1.422,1.422,0,0,0-.871-.479,1.829,1.829,0,0,0-.308-.028,2.823,2.823,0,0,0-1.245.364l-.221.1a2.856,2.856,0,0,1-1.21.213c-.245,0-.5-.014-.787-.028-.175-.011-.361-.021-.556-.028-1.014-.035-1.857.007-3.043.063h-.017v-4.193a1.4,1.4,0,0,0,.832-.965l.325-.084a36.675,36.675,0,0,1,7.956-.93,1.43,1.43,0,0,0,.678.581v12.768H371.91C371.91,119.9,371.907,119.9,371.907,119.891Zm-8.922-11.461a1.558,1.558,0,0,0,.22.112v4.246c-1.458.066-3.42.133-6.491.143a31.558,31.558,0,0,0,3.06-2.231A19.92,19.92,0,0,1,362.985,108.43Zm22.953.112a1.557,1.557,0,0,0,.22-.112,20.063,20.063,0,0,1,3.207,2.27,29.622,29.622,0,0,0,3.039,2.217c-1.543.017-3.424.021-5.777,0-.235,0-.465,0-.689-.007Zm-11.244-4.218h0c-.039,0-.08,0-.119-.007a.688.688,0,0,1-.087,0,.9.9,0,1,1,.21,0Zm-18.214,5.193a1.329,1.329,0,0,0,1.255.84.832.832,0,0,0,.1,0,1.256,1.256,0,0,0,.154-.021,26.745,26.745,0,0,1-4.05,2.581,1.4,1.4,0,0,0-2.084-.011,29.894,29.894,0,0,1-5.865-.322l-.08-.028c-.056-.021-.122-.042-.2-.07a31.453,31.453,0,0,0,10.625-3.823A1.891,1.891,0,0,0,356.48,109.518ZM341.7,117.027c.654.017,1.308.011,1.955-.024a17.4,17.4,0,0,1,0,2.675c-.007.077-.014.158-.021.234H341.7Zm1.374-2.483a2.719,2.719,0,0,1,.385,1.07c-.581.024-1.172.031-1.759.017v-2.714c.269-.011.612-.028,1.014-.056a1.6,1.6,0,0,0-.094.591A1.727,1.727,0,0,0,343.071,114.544Zm4.047,9.807.122-.584a21.83,21.83,0,0,0,.532-2.8c.031-.28.059-.567.077-.857,0-.066.007-.13.011-.192a10.44,10.44,0,0,0-.273-3.368.768.768,0,0,0-.091-.189,1.49,1.49,0,0,1-.312-.871,1.417,1.417,0,0,1,.025-.294,1.02,1.02,0,0,1,.346-.633,1.046,1.046,0,0,1,.664-.206,3.677,3.677,0,0,1,1.263.315c.031.014.059.025.084.035l.049.021a9.967,9.967,0,0,0,2.389.2c.115,0,.237,0,.36.007.178,0,.36.007.553.007.161,0,.325.007.5.007.1,0,.217,0,.329.007h.213c4.106.049,5.97-.06,7.25-.133a19.153,19.153,0,0,1,1.969-.045h.031c.116,0,.224.011.329.017.175.011.336.021.49.021.084,0,.161,0,.231-.011a1.185,1.185,0,0,0,.437-.122c.042-.021.088-.049.133-.073a1.825,1.825,0,0,1,.906-.3,1.444,1.444,0,0,1,.245.024,1.11,1.11,0,0,1,.682.437,1.132,1.132,0,0,1-.378,1.472,6.145,6.145,0,0,0-.206.819,7.239,7.239,0,0,0,.091,2.154c.024.214.052.444.084.7.01.112.024.227.038.35.028.259.053.49.07.7.056.566.08.965.1,1.255.035.6.045.612.126.734a1.282,1.282,0,0,1,.238,1.381,1.191,1.191,0,0,1-.752.56,1.259,1.259,0,0,1-.3.035,1.766,1.766,0,0,1-.588-.115l-.059-.021a1.937,1.937,0,0,0-.742-.052c-.133.007-.28.017-.447.017-.308.007-1.343,0-2.745-.011-1.822-.011-4.263-.028-6.519-.028-2.011,0-3.55.014-4.568.039a3.242,3.242,0,0,0-1.21.14c-.091.039-.171.081-.249.119a3.381,3.381,0,0,1-.325.147,1.069,1.069,0,0,1-.353.067.8.8,0,0,1-.315-.063s0,0-.007,0A.917.917,0,0,1,347.118,124.35Zm25.712.811a1.546,1.546,0,0,0-.434-1.588c-.161-.2-.171-.252-.231-1.053-.028-.367-.063-.867-.133-1.559h5.2a26.1,26.1,0,0,1-.937,4.064l-.095.095,0,.042Zm8.009-.811.123-.584a21.859,21.859,0,0,0,.531-2.8c.032-.28.06-.567.077-.857,0-.066.007-.13.011-.192a8.533,8.533,0,0,0-.364-3.557,1.49,1.49,0,0,1-.311-.871,1.177,1.177,0,0,1,.371-.927,1.05,1.05,0,0,1,.668-.206,3.9,3.9,0,0,1,1.343.349l.049.021a5.952,5.952,0,0,0,1.552.178c.312.014.661.021,1.05.028.514.011,1.1.017,1.738.025,4.067.049,5.935-.056,7.211-.13a.135.135,0,0,1,.039,0c.293-.017.556-.031.8-.038.039,0,.077-.007.115-.007.315-.01.612-.014.934,0,.039,0,.077,0,.116,0,.126,0,.244.011.36.017.133.007.255.017.374.017.039,0,.077,0,.116,0a1.39,1.39,0,0,0,.668-.133c.042-.021.087-.049.133-.073.1-.056.21-.115.336-.171a1.456,1.456,0,0,1,.57-.126,1.438,1.438,0,0,1,.245.024,1.11,1.11,0,0,1,.682.437.548.548,0,0,1,.056.1,1.152,1.152,0,0,1-.4,1.343c-.011.011-.021.017-.031.028a6.142,6.142,0,0,0-.206.819,7.243,7.243,0,0,0,.091,2.154c.028.214.056.444.084.7.014.112.025.227.039.35.028.259.052.49.07.7.056.566.08.965.1,1.255.035.6.046.612.126.734a1.282,1.282,0,0,1,.237,1.381,1.189,1.189,0,0,1-.752.56,1.256,1.256,0,0,1-.3.035,1.785,1.785,0,0,1-.587-.115l-.06-.021a1.935,1.935,0,0,0-.741-.052c-.133.007-.28.017-.448.017-.307.007-1.343,0-2.745-.011-1.822-.011-4.263-.028-6.519-.028-2.011,0-3.55.014-4.568.039a3.242,3.242,0,0,0-1.21.14c-.091.039-.172.081-.249.119a3.49,3.49,0,0,1-.325.147,1.072,1.072,0,0,1-.353.067.821.821,0,0,1-.315-.063s0,0-.007,0A.918.918,0,0,1,380.839,124.35Zm24.548-15.042c.682.045,1.368.056,2.056.035v2.874c-.493-.017-1.262-.059-2.235-.174A32.529,32.529,0,0,1,399.98,111a1.76,1.76,0,0,1-.035-1.381.932.932,0,0,1,.955-.577c.252.017.787.189.835.6a.762.762,0,0,1-.136.584.5.5,0,0,1-.486-.105.494.494,0,0,1-.136-.353l-.668-.209a1.14,1.14,0,0,0,.269,1.014,1.184,1.184,0,0,0,1.154.339c.577-.108.755-.853.7-1.35a1.217,1.217,0,0,0-.266-.626A29.292,29.292,0,0,0,405.387,109.308ZM383.7,97.963c.07.021.14.042.21.066a11.539,11.539,0,0,1,5.361,3.7,20.356,20.356,0,0,0,10.852,6.757,1.578,1.578,0,0,0-.818.846,2.411,2.411,0,0,0-.129,1.42,28.938,28.938,0,0,1-6.481-2.934,25.218,25.218,0,0,1-5.026-4.043,2.477,2.477,0,0,0,.4-1.259,2.189,2.189,0,0,0-.542-1.574,1.809,1.809,0,0,0-1.49-.661,1.684,1.684,0,0,0-1.126.591,1.665,1.665,0,0,0,.252-1.242A1.819,1.819,0,0,0,384.1,98.4a1.85,1.85,0,0,0-.276-.108,2.241,2.241,0,0,0-1.385.039,2.928,2.928,0,0,0-1.739,1.853,3.085,3.085,0,0,0-.126.409h-.808a3.5,3.5,0,0,0-.545-2.459,2.832,2.832,0,0,0-1.647-1.189A28.55,28.55,0,0,1,383.7,97.963Zm-9.128-1.123c.65,0,1.287.014,1.906.038a2.084,2.084,0,0,0-1.088.486,2.536,2.536,0,0,0-.619,2.43,2.4,2.4,0,0,0,1.339,1.609,1.879,1.879,0,0,0,1.875-.123,1.732,1.732,0,0,0,.671-1.829,1.732,1.732,0,0,0-2.735-.916,1.224,1.224,0,0,0-.039,1.4l.609-.343a.56.56,0,0,1-.035-.6,1.226,1.226,0,0,1,.769-.091.965.965,0,0,1,.756.738,1.043,1.043,0,0,1-.409,1.081,1.22,1.22,0,0,1-1.2.042,1.7,1.7,0,0,1-.93-1.144,1.85,1.85,0,0,1,.406-1.721,1.645,1.645,0,0,1,1.455-.3,2.138,2.138,0,0,1,1.347.934,3.183,3.183,0,0,1,.273,2.724,4.441,4.441,0,0,1-2.886,2.872,1.563,1.563,0,0,0,.161-.7,1.6,1.6,0,0,0-3.207,0,1.547,1.547,0,0,0,.178.728,4.452,4.452,0,0,1-2.955-2.9,3.17,3.17,0,0,1,.272-2.724,2.132,2.132,0,0,1,1.343-.934,1.644,1.644,0,0,1,1.455.3,1.84,1.84,0,0,1,.406,1.721,1.693,1.693,0,0,1-.927,1.144,1.226,1.226,0,0,1-1.2-.042,1.039,1.039,0,0,1-.406-1.081.961.961,0,0,1,.749-.738,1.248,1.248,0,0,1,.776.091.57.57,0,0,1-.039.6l.612.343a1.23,1.23,0,0,0-.039-1.4,1.732,1.732,0,0,0-2.735.916,1.721,1.721,0,0,0,.672,1.829,1.878,1.878,0,0,0,1.875.123,2.391,2.391,0,0,0,1.336-1.609,2.535,2.535,0,0,0-.619-2.43,2.061,2.061,0,0,0-1.085-.486C373.285,96.854,373.921,96.84,374.572,96.84Zm-14.7,4.893a11.568,11.568,0,0,1,5.186-3.644v0c.13-.042.259-.084.388-.122a28.513,28.513,0,0,1,6.124-1.022,2.835,2.835,0,0,0-1.651,1.189,3.5,3.5,0,0,0-.542,2.459h-.9a3.041,3.041,0,0,0-.126-.409,2.935,2.935,0,0,0-1.738-1.853,2.245,2.245,0,0,0-1.486-.007c-.067.025-.122.052-.178.077a1.812,1.812,0,0,0-1.06,1.238,1.669,1.669,0,0,0,.234,1.224,1.657,1.657,0,0,0-1.109-.574,1.8,1.8,0,0,0-1.49.661,2.16,2.16,0,0,0-.542,1.574,2.43,2.43,0,0,0,.409,1.27,25.219,25.219,0,0,1-4.945,3.99,28.994,28.994,0,0,1-6.484,2.955,2.463,2.463,0,0,0-.13-1.445,1.6,1.6,0,0,0-.756-.818A20.318,20.318,0,0,0,359.869,101.733Zm-16.116,7.575a29.506,29.506,0,0,0,3.183-.371,1.146,1.146,0,0,0-.227.573c-.06.493.119,1.242.7,1.35a1.191,1.191,0,0,0,1.154-.339,1.144,1.144,0,0,0,.27-1.014l-.672.2a.483.483,0,0,1-.136.36.518.518,0,0,1-.487.105.781.781,0,0,1-.136-.584c.049-.409.588-.581.84-.6a.928.928,0,0,1,.951.577,1.774,1.774,0,0,1-.042,1.405l.007,0a31.746,31.746,0,0,1-7.46,1.235v-2.871C342.382,109.364,343.075,109.354,343.753,109.308Z" transform="translate(-337.79 -95.441)" fill="#fff"/>
    <rect id="Прямоугольник_10" data-name="Прямоугольник 10" width="36.313" height="12.139" transform="translate(37.366 41.566)" fill="#fff"/>
    <rect id="Прямоугольник_11" data-name="Прямоугольник 11" width="36.317" height="12.139" transform="translate(0 41.566)" fill="#fff"/>
  </g>
</svg>
