<svg xmlns="http://www.w3.org/2000/svg" width="80.191" height="44.78" viewBox="0 0 80.191 44.78">
  <path id="Контур_146" data-name="Контур 146" d="M214.681,79.5a3.185,3.185,0,0,1-3.3,3.031H137.793a3.042,3.042,0,1,1,0-6.061h73.585A3.185,3.185,0,0,1,214.681,79.5ZM178.437,41.429a3.855,3.855,0,0,0-7.7-.021,30.125,30.125,0,0,1,7.7.021ZM208.418,73.8H140.753a33.938,33.938,0,0,1,67.666,0Zm-37.7-28.3a35.147,35.147,0,0,0-24.631,25.135h7.171S157.224,53.118,170.714,45.5Z" transform="translate(-134.49 -37.754)" fill="#fff"/>
</svg>
