<svg xmlns="http://www.w3.org/2000/svg" width="117.189" height="73.027" viewBox="0 0 117.189 73.027">
  <g id="Сгруппировать_12" data-name="Сгруппировать 12" transform="translate(0 0)">
    <g id="Сгруппировать_16" data-name="Сгруппировать 16" transform="translate(25.432 28.477)">
      <path id="Контур_82" data-name="Контур 82" d="M181.581,109.969a7.837,7.837,0,0,1-4.252-1.68,13.466,13.466,0,0,1-3.311-3.7.522.522,0,0,0-.121-.142c-.52-.435-3.643-2.41-17.457-2.836-1.7-.053-3.554-.083-5.588-.083-18.6,0-22.46,2.431-23.045,2.918a.476.476,0,0,0-.124.142c-3.037,4.834-6.558,5.343-7.564,5.384a.611.611,0,0,0-.588.615v8.681h4.554l-.053.053.026.215a1.015,1.015,0,0,0,.278.618.539.539,0,0,0,.044.041.872.872,0,0,0,.242.145.886.886,0,0,0,.3.051,1.825,1.825,0,0,0,.713-.2l.047-.021c.017-.006.032-.015.05-.021.095-.038.192-.08.3-.118a5.174,5.174,0,0,1,1.7-.18c.095,0,.19,0,.29-.006a.976.976,0,0,1-.071-.293l-.033-.29.136-.2c.03-.106.062-.24.1-.39a17.446,17.446,0,0,0,.417-2.709,7.508,7.508,0,0,0-.3-3.17,1.247,1.247,0,0,1-.263-.733.988.988,0,0,1,.313-.784.862.862,0,0,1,.561-.177,3.378,3.378,0,0,1,1.139.3l.041.017a18.56,18.56,0,0,0,3.669.2c3.471.041,5.048-.051,6.127-.113a16.27,16.27,0,0,1,1.668-.038c.106,0,.207.009.3.015.148.008.284.017.414.017a1.176,1.176,0,0,0,.565-.112c.036-.018.074-.038.113-.062a1.577,1.577,0,0,1,.766-.249.987.987,0,0,1,.207.021.919.919,0,0,1,.577.367.96.96,0,0,1-.32,1.245,4.724,4.724,0,0,0-.174.7,6.227,6.227,0,0,0,.074,1.821c.033.26.068.55.106.881.089.81.118,1.319.139,1.653.033.509.042.52.109.621a1.992,1.992,0,0,1,.174.3,1.04,1.04,0,0,1,.118.591.815.815,0,0,1-.092.275.968.968,0,0,1-.281.31c.852.006,1.455.006,1.7,0,.219,0,.408-.012.58-.021.153-.006.3-.012.429-.012a2.292,2.292,0,0,1,.665.086l.083.024a2.38,2.38,0,0,0,.68.118,1.482,1.482,0,0,0,.325-.035,1.3,1.3,0,0,0,.836-.538.877.877,0,0,0,.095-.21h2.463c-.012.038-.021.062-.024.071l-.024.068,0,.13a1,1,0,0,0,.278.618.444.444,0,0,0,.042.041.835.835,0,0,0,.245.145.87.87,0,0,0,.3.051,1.837,1.837,0,0,0,.713-.2l.047-.021c.018-.006.033-.015.05-.021.092-.038.2-.08.3-.118a5.2,5.2,0,0,1,1.706-.18c.092,0,.189,0,.287-.006a1.068,1.068,0,0,1-.071-.293l-.009-.089.026-.085s.012-.042.033-.115c.033-.118.086-.322.148-.591a17.247,17.247,0,0,0,.42-2.709,7.463,7.463,0,0,0-.3-3.17,1.259,1.259,0,0,1-.26-.733.974.974,0,0,1,.31-.784.877.877,0,0,1,.565-.177,3.335,3.335,0,0,1,1.135.3l.042.017a18.556,18.556,0,0,0,3.669.2c3.471.041,5.047-.051,6.129-.113a16.234,16.234,0,0,1,1.665-.038c.106,0,.21.009.3.015.148.008.284.017.414.017a1.19,1.19,0,0,0,.568-.112c.035-.018.071-.038.112-.062a1.567,1.567,0,0,1,.766-.249.957.957,0,0,1,.2.021.911.911,0,0,1,.577.367.957.957,0,0,1-.319,1.245,5.158,5.158,0,0,0-.174.7,6.128,6.128,0,0,0,.077,1.821c.032.26.068.55.1.881.089.81.121,1.319.142,1.653.032.509.038.52.109.621a2.038,2.038,0,0,1,.175.3,1.065,1.065,0,0,1,.115.591.833.833,0,0,1-.372.585c.852.006,1.455.006,1.706,0,.216,0,.405-.012.577-.021s.3-.012.432-.012a2.3,2.3,0,0,1,.665.086l.083.024a2.377,2.377,0,0,0,.677.118,1.505,1.505,0,0,0,.328-.035,1.309,1.309,0,0,0,.837-.538.889.889,0,0,0,.094-.21h4.367v-8.681A.614.614,0,0,0,181.581,109.969Zm-56.557,4.749a20.662,20.662,0,0,1-.739,3.956h-4.163v-8.09a.026.026,0,0,1,.021-.027,8.147,8.147,0,0,0,4.03-1.413,1.315,1.315,0,0,0-.026.31,1.459,1.459,0,0,0,.384.923A8.6,8.6,0,0,1,125.024,114.717Zm50.428-6.141c-.062.03-.124.062-.186.086a2.41,2.41,0,0,1-1.02.18c-.21,0-.429-.012-.665-.024-.151-.009-.308-.015-.473-.021-.855-.033-1.57,0-2.573.053-1.694.083-4.169.2-9.607.151a31.913,31.913,0,0,1-5.851-.284l-.065-.024a5.665,5.665,0,0,0-1.662-.378,1.2,1.2,0,0,0-.7.183,1.12,1.12,0,0,0-.42.955,1.433,1.433,0,0,0,.381.923,8.566,8.566,0,0,1,.494,4.34,20.641,20.641,0,0,1-.739,3.956H149.7a2.118,2.118,0,0,0-.381-.663c-.139-.171-.148-.213-.195-.89-.033-.452-.083-1.132-.219-2.223-.059-.443-.115-.837-.165-1.189a7.3,7.3,0,0,1-.118-2.475,6.062,6.062,0,0,1,.293-.985,1.461,1.461,0,0,0,.65-.887.817.817,0,0,0-.148-.662,1.222,1.222,0,0,0-.736-.408,1.552,1.552,0,0,0-.26-.021,2.386,2.386,0,0,0-1.053.3c-.065.03-.127.062-.186.086a2.415,2.415,0,0,1-1.023.18c-.207,0-.426-.012-.665-.024-.148-.009-.3-.015-.47-.021-.857-.033-1.57,0-2.572.053-1.7.083-4.169.2-9.61.151a31.934,31.934,0,0,1-5.851-.284l-.065-.024a5.611,5.611,0,0,0-1.647-.378,14.462,14.462,0,0,0,2.9-3.421c.34-.284,3.883-2.779,22.667-2.779,2.031,0,3.882.029,5.571.08,13.941.435,16.792,2.445,17.1,2.7a14.661,14.661,0,0,0,2.853,3.382A2.572,2.572,0,0,0,175.452,108.576Zm6.129,10.1h-3.793a2.175,2.175,0,0,0-.384-.663c-.136-.171-.145-.213-.192-.89-.033-.452-.083-1.132-.222-2.223-.056-.443-.112-.837-.163-1.189a7.14,7.14,0,0,1-.118-2.475,6.483,6.483,0,0,1,.29-.985,1.465,1.465,0,0,0,.653-.887c.006-.044.012-.086.015-.127a8.084,8.084,0,0,0,3.891,1.321.026.026,0,0,1,.023.027Z" transform="translate(-117.747 -99.446)" fill="none"/>
      <path id="Контур_83" data-name="Контур 83" d="M248.306,118.774c0,.041-.009.083-.015.127a1.465,1.465,0,0,1-.653.887,6.476,6.476,0,0,0-.29.985,7.139,7.139,0,0,0,.118,2.475c.05.352.106.745.163,1.189.139,1.091.189,1.771.222,2.223.047.677.056.719.192.89a2.175,2.175,0,0,1,.384.663h3.793v-8.09a.026.026,0,0,0-.023-.027A8.084,8.084,0,0,1,248.306,118.774Z" transform="translate(-188.386 -108.984)" fill="#fff"/>
      <path id="Контур_84" data-name="Контур 84" d="M180.631,105.629c-.3-.257-3.155-2.268-17.1-2.7-1.688-.051-3.539-.08-5.571-.08-18.784,0-22.327,2.5-22.667,2.779a14.461,14.461,0,0,1-2.9,3.421,5.61,5.61,0,0,1,1.647.378l.065.024a31.94,31.94,0,0,0,5.851.284c5.441.053,7.912-.068,9.61-.151,1-.051,1.715-.086,2.572-.053.165.006.322.012.47.021.239.012.458.024.665.024a2.414,2.414,0,0,0,1.023-.18c.059-.024.121-.056.186-.086a2.387,2.387,0,0,1,1.053-.3,1.55,1.55,0,0,1,.26.021,1.222,1.222,0,0,1,.736.408.817.817,0,0,1,.148.662,1.462,1.462,0,0,1-.65.887,6.053,6.053,0,0,0-.293.985,7.3,7.3,0,0,0,.118,2.475c.05.352.106.745.165,1.189.136,1.091.186,1.771.219,2.223.047.677.056.719.195.89a2.117,2.117,0,0,1,.381.663h2.661a20.639,20.639,0,0,0,.739-3.956,8.566,8.566,0,0,0-.494-4.34,1.433,1.433,0,0,1-.381-.923,1.121,1.121,0,0,1,.42-.955,1.2,1.2,0,0,1,.7-.183,5.664,5.664,0,0,1,1.662.378l.065.024a31.919,31.919,0,0,0,5.851.284c5.438.053,7.913-.068,9.607-.151,1-.051,1.718-.086,2.573-.053.165.006.322.012.473.021.236.012.455.024.665.024a2.409,2.409,0,0,0,1.02-.18c.062-.024.124-.056.186-.086a2.571,2.571,0,0,1,.92-.3A14.659,14.659,0,0,1,180.631,105.629Z" transform="translate(-124.86 -100.177)" fill="#fff"/>
      <path id="Контур_85" data-name="Контур 85" d="M243.418,181.122h.523l.786,5.993h2.354l.786-5.993h.523V179.57h-4.973Z" transform="translate(-186.251 -142.601)" fill="#fff"/>
      <path id="Контур_86" data-name="Контур 86" d="M124.877,118.879a1.316,1.316,0,0,1,.026-.31,8.148,8.148,0,0,1-4.03,1.413.026.026,0,0,0-.021.027v8.09h4.163a20.66,20.66,0,0,0,.739-3.956,8.6,8.6,0,0,0-.494-4.34A1.459,1.459,0,0,1,124.877,118.879Z" transform="translate(-118.479 -108.871)" fill="#fff"/>
      <path id="Контур_87" data-name="Контур 87" d="M124.352,181.122h.52l.789,5.993h2.351l.789-5.993h.523V179.57h-4.973Z" transform="translate(-120.413 -142.601)" fill="#fff"/>
      <path id="Контур_88" data-name="Контур 88" d="M181.1,166.842c-.076-.023-64.83-.023-64.907,0a.886.886,0,0,0-.65.855v3.344a.891.891,0,0,0,.89.89h64.425a.894.894,0,0,0,.893-.89V167.7A.89.89,0,0,0,181.1,166.842Z" transform="translate(-115.542 -135.554)" fill="#fff"/>
      <path id="Контур_89" data-name="Контур 89" d="M115.542,148.139v5.15a2.531,2.531,0,0,0,.65,1.7.808.808,0,0,1,.24-.036h64.425a.826.826,0,0,1,.242.036,2.529,2.529,0,0,0,.651-1.7v-5.15a2.531,2.531,0,0,0-.639-1.686H116.18A2.533,2.533,0,0,0,115.542,148.139Z" transform="translate(-115.542 -124.289)" fill="#fff"/>
      <path id="Контур_90" data-name="Контур 90" d="M181.751,117.528V106.366a.985.985,0,0,0-.991-.982h-.044a7.3,7.3,0,0,1-6.289-3.927c-.29-.671-2.963-4.583-25.78-4.583s-25.494,3.912-25.783,4.583a7.3,7.3,0,0,1-6.289,3.927h-.05a.983.983,0,0,0-.982.982v11.162a.984.984,0,0,0,.638.92h64.931A.984.984,0,0,0,181.751,117.528Zm-1.783-.834H175.6a.89.89,0,0,1-.094.21,1.309,1.309,0,0,1-.837.538,1.505,1.505,0,0,1-.328.035,2.377,2.377,0,0,1-.677-.118l-.083-.024a2.3,2.3,0,0,0-.665-.086c-.136,0-.275.006-.432.012s-.361.017-.577.021c-.251,0-.854,0-1.706,0a.833.833,0,0,0,.372-.585,1.065,1.065,0,0,0-.115-.591,2.039,2.039,0,0,0-.175-.3c-.071-.1-.077-.112-.109-.621-.021-.334-.053-.843-.142-1.653-.035-.331-.071-.621-.1-.881a6.125,6.125,0,0,1-.077-1.821,5.161,5.161,0,0,1,.174-.7.957.957,0,0,0,.319-1.245.911.911,0,0,0-.577-.367.958.958,0,0,0-.2-.021,1.567,1.567,0,0,0-.766.249c-.042.024-.077.044-.112.062a1.19,1.19,0,0,1-.568.112c-.13,0-.266-.009-.414-.017-.095-.006-.2-.012-.3-.015a16.227,16.227,0,0,0-1.665.038c-1.082.062-2.658.154-6.129.113a18.562,18.562,0,0,1-3.669-.2l-.042-.017a3.336,3.336,0,0,0-1.135-.3.877.877,0,0,0-.565.177.974.974,0,0,0-.31.784,1.259,1.259,0,0,0,.26.733,7.462,7.462,0,0,1,.3,3.17,17.251,17.251,0,0,1-.42,2.709c-.062.269-.115.473-.148.591-.021.074-.033.112-.033.115l-.026.085.009.089a1.067,1.067,0,0,0,.071.293c-.1,0-.195,0-.287.006a5.2,5.2,0,0,0-1.706.18c-.1.038-.207.08-.3.118-.017.006-.032.015-.05.021l-.047.021a1.837,1.837,0,0,1-.713.2.87.87,0,0,1-.3-.051.835.835,0,0,1-.245-.145.441.441,0,0,1-.042-.041,1.006,1.006,0,0,1-.278-.618l0-.13.024-.068c0-.009.012-.032.024-.071h-2.463a.875.875,0,0,1-.095.21,1.3,1.3,0,0,1-.836.538,1.481,1.481,0,0,1-.325.035,2.379,2.379,0,0,1-.68-.118l-.083-.024a2.292,2.292,0,0,0-.665-.086c-.133,0-.275.006-.429.012-.172.008-.361.017-.58.021-.248,0-.852,0-1.7,0a.968.968,0,0,0,.281-.31.815.815,0,0,0,.092-.275,1.04,1.04,0,0,0-.118-.591,1.994,1.994,0,0,0-.174-.3c-.068-.1-.077-.112-.11-.621-.021-.334-.05-.843-.139-1.653-.038-.331-.074-.621-.106-.881a6.225,6.225,0,0,1-.074-1.821,4.725,4.725,0,0,1,.174-.7.96.96,0,0,0,.32-1.245.919.919,0,0,0-.577-.367.987.987,0,0,0-.207-.021,1.576,1.576,0,0,0-.766.249c-.038.024-.077.044-.113.062a1.176,1.176,0,0,1-.565.112c-.13,0-.266-.009-.414-.017-.1-.006-.2-.012-.3-.015a16.263,16.263,0,0,0-1.668.038c-1.079.062-2.655.154-6.127.113a18.565,18.565,0,0,1-3.669-.2l-.041-.017a3.379,3.379,0,0,0-1.139-.3.862.862,0,0,0-.561.177.988.988,0,0,0-.313.784,1.247,1.247,0,0,0,.263.733,7.509,7.509,0,0,1,.3,3.17,17.445,17.445,0,0,1-.417,2.709c-.036.151-.068.284-.1.39l-.136.2.033.29a.975.975,0,0,0,.071.293c-.1,0-.2,0-.29.006a5.175,5.175,0,0,0-1.7.18c-.11.038-.207.08-.3.118-.018.006-.033.015-.05.021l-.047.021a1.824,1.824,0,0,1-.713.2.886.886,0,0,1-.3-.051.872.872,0,0,1-.242-.145.525.525,0,0,1-.044-.041,1.014,1.014,0,0,1-.278-.618l-.026-.215.053-.053h-4.554v-8.681a.611.611,0,0,1,.588-.615c1.005-.042,4.527-.55,7.564-5.384a.475.475,0,0,1,.124-.142c.585-.488,4.447-2.918,23.045-2.918,2.034,0,3.891.029,5.588.083,13.814.426,16.937,2.4,17.457,2.836a.521.521,0,0,1,.121.142,13.466,13.466,0,0,0,3.311,3.7,7.837,7.837,0,0,0,4.252,1.68.614.614,0,0,1,.591.615Z" transform="translate(-115.542 -96.875)" fill="#fff"/>
    </g>
    <g id="Сгруппировать_17" data-name="Сгруппировать 17" transform="translate(0 52.347)">
      <path id="Контур_91" data-name="Контур 91" d="M83.294,171.772H65.083v4.483H83.294ZM74.187,173.4a.531.531,0,1,1,.532-.532A.529.529,0,0,1,74.187,173.4Z" transform="translate(-62.209 -162.16)" fill="#fff"/>
      <path id="Контур_92" data-name="Контур 92" d="M65.083,161.8H83.294V157.32H65.083Zm9.1-3.915a.532.532,0,1,1-.529.532A.532.532,0,0,1,74.187,157.888Z" transform="translate(-62.209 -154.168)" fill="#fff"/>
      <path id="Контур_93" data-name="Контур 93" d="M81.164,158.6v-5.878H82.7V150.27H58.654v2.454h1.532v12.339h-.757v1.517h.757v4.37h1.765l1.928-4.37H77.471l1.928,4.37h1.765v-4.37h.757v-1.517h-.757V158.6Zm-20.026-5.571H80.127v5.263H61.138Zm18.989,11.724H61.138v-5.263H80.127Z" transform="translate(-58.654 -150.27)" fill="#fff"/>
    </g>
    <path id="Контур_94" data-name="Контур 94" d="M80.216,127.569a17.912,17.912,0,0,0,3.947-.637l.178-.049-2.67-7.278h-4.11l-2.664,7.26.155.061a12.525,12.525,0,0,0,3.964.657v.426c0,.032.017.783-1.53,1.006a1.494,1.494,0,0,0-1.088.647,2.9,2.9,0,0,0-.206,2.054c.028.149.382,1.6,3.422,1.6s3.394-1.448,3.423-1.6a2.9,2.9,0,0,0-.206-2.054,1.5,1.5,0,0,0-1.089-.647c-1.546-.224-1.531-.974-1.529-1Z" transform="translate(-67.636 -80.967)" fill="#fff"/>
    <path id="Контур_95" data-name="Контур 95" d="M288.576,127.569a17.912,17.912,0,0,0,3.947-.637l.178-.049-2.67-7.278h-4.11l-2.663,7.26.155.061a12.525,12.525,0,0,0,3.964.657v.426c0,.032.017.783-1.53,1.006a1.5,1.5,0,0,0-1.089.647,2.9,2.9,0,0,0-.205,2.054c.028.149.382,1.6,3.422,1.6s3.394-1.448,3.423-1.6a2.9,2.9,0,0,0-.206-2.054,1.494,1.494,0,0,0-1.089-.647c-1.546-.224-1.531-.974-1.529-1Z" transform="translate(-182.849 -80.967)" fill="#fff"/>
    <path id="Контур_96" data-name="Контур 96" d="M185.471,43.6c.231-.431.095-1.061-.411-1.925l-.257-.435-.254.435c-.506.863-.642,1.493-.411,1.925a.655.655,0,0,0,.1.151H184.1v4.1h.4c-.2,3.22-3.687,5.786-7.948,5.786a10.476,10.476,0,0,1-1.224-.071,4.071,4.071,0,0,0,2.008-1.032c1.174-1.147,1.389-2.983,1.407-4.683h.411v-4.1h-.142a.642.642,0,0,0,.1-.151c.231-.431.095-1.061-.411-1.925l-.254-.435-.257.435c-.506.863-.642,1.493-.411,1.925a.743.743,0,0,0,.1.151h-.139v4.1h.408c-.029,2.17-.4,3.453-1.23,4.261a4.715,4.715,0,0,1-3.516,1.038,6.686,6.686,0,0,1-4.678-4.394c-.038-.292-.077-.6-.112-.916a1.027,1.027,0,0,0,.245-.724.983.983,0,0,0-.254-.725,1,1,0,0,0,.254-.73.983.983,0,0,0-.254-.725,1.177,1.177,0,0,0,0-1.457,1.179,1.179,0,0,0,0-1.455,1.179,1.179,0,0,0,0-1.455,1.179,1.179,0,0,0,0-1.455,1,1,0,0,0,.251-.727.99.99,0,0,0-.254-.727,1.167,1.167,0,0,0,0-1.455,1,1,0,0,0,.254-.727,1.156,1.156,0,0,0-.133-.574h1.523V33.175h-3.912V34.9h1.523a1.161,1.161,0,0,0-.133.574.994.994,0,0,0,.251.727,1.179,1.179,0,0,0,0,1.455.989.989,0,0,0-.251.727,1.016,1.016,0,0,0,.248.727,1.19,1.19,0,0,0,0,1.455,1.19,1.19,0,0,0,0,1.455,1.191,1.191,0,0,0,0,1.455,1.016,1.016,0,0,0-.248.727,1,1,0,0,0,.251.73.982.982,0,0,0-.251.725,1,1,0,0,0,.251.73.982.982,0,0,0-.251.725,1,1,0,0,0,.251.73c-.038.32-.074.621-.115.914a6.664,6.664,0,0,1-4.672,4.426,4.7,4.7,0,0,1-3.524-1.035c-.828-.81-1.2-2.093-1.23-4.26h.408v-4.1H158.7a.9.9,0,0,0,.106-.154c.228-.429.095-1.059-.414-1.925l-.254-.435-.254.435c-.509.866-.642,1.5-.414,1.925a.88.88,0,0,0,.106.154h-.145v4.1h.414c.017,1.7.233,3.536,1.407,4.683a4.071,4.071,0,0,0,2.008,1.032,10.477,10.477,0,0,1-1.224.071c-4.261,0-7.753-2.569-7.951-5.786h.4v-4.1h-.142a.746.746,0,0,0,.1-.154c.231-.429.095-1.059-.411-1.925l-.257-.435-.254.435c-.506.866-.642,1.5-.411,1.925a.906.906,0,0,0,.107.154h-.145v4.1h.417c.2,3.542,3.956,6.378,8.545,6.378a10.965,10.965,0,0,0,3.3-.494c3.569-.113,4.524-1.65,4.961-3.953.438,2.279,1.4,3.805,4.953,3.917a11.035,11.035,0,0,0,3.3.491c4.589,0,8.344-2.832,8.542-6.378h.42v-4.1h-.139A.729.729,0,0,0,185.471,43.6Zm-20.112,9.267a7.314,7.314,0,0,0,1.869-1.582A3,3,0,0,1,165.359,52.864Zm4-1.612a7.326,7.326,0,0,0,1.866,1.576A3,3,0,0,1,169.359,51.253Z" transform="translate(-109.718 -33.175)" fill="#fff"/>
    <g id="Сгруппировать_18" data-name="Сгруппировать 18" transform="translate(93.147 52.347)">
      <path id="Контур_97" data-name="Контур 97" d="M291.654,171.772H273.443v4.483h18.211Zm-9.107,1.632a.531.531,0,1,1,.533-.532A.529.529,0,0,1,282.547,173.4Z" transform="translate(-270.569 -162.16)" fill="#fff"/>
      <path id="Контур_98" data-name="Контур 98" d="M273.443,161.8h18.211V157.32H273.443Zm9.1-3.915a.532.532,0,1,1-.529.532A.532.532,0,0,1,282.547,157.888Z" transform="translate(-270.569 -154.168)" fill="#fff"/>
      <path id="Контур_99" data-name="Контур 99" d="M289.524,158.6v-5.878h1.532V150.27H267.014v2.454h1.532v12.339h-.757v1.517h.757v4.37h1.765l1.928-4.37h13.592l1.928,4.37h1.765v-4.37h.757v-1.517h-.757V158.6ZM269.5,153.031h18.989v5.263H269.5Zm18.989,11.724H269.5v-5.263h18.989Z" transform="translate(-267.014 -150.27)" fill="#fff"/>
    </g>
  </g>
</svg>
