<svg id="ELEMENTS" xmlns="http://www.w3.org/2000/svg" width="119.815" height="119.815" viewBox="0 0 119.815 119.815">
  <path id="Контур_148" data-name="Контур 148" d="M59.908,0A59.908,59.908,0,1,1,0,59.908,59.908,59.908,0,0,1,59.908,0Z" transform="translate(0 0)" fill="#fff"/>
  <path id="Контур_1" data-name="Контур 1" d="M1849.4,223.6l62.805-24.216c2.915-1.053,5.461.711,4.516,5.119l.006-.005-10.694,50.38c-.792,3.572-2.915,4.44-5.884,2.757l-16.285-12-7.855,7.567a4.105,4.105,0,0,1-3.284,1.6l1.156-16.573,30.181-27.266c1.314-1.156-.293-1.808-2.025-.657l-37.3,23.483-16.078-5.016c-3.49-1.107-3.566-3.49.738-5.173Z" transform="translate(-1824.567 -165.408)" fill="#604337"/>
</svg>
