<svg id="ELEMENTS" xmlns="http://www.w3.org/2000/svg" width="120.136" height="120.136" viewBox="0 0 120.136 120.136">
  <g id="Сгруппировать_3" data-name="Сгруппировать 3" transform="translate(0 0)">
    <path id="Контур_147" data-name="Контур 147" d="M58.622,0A58.622,58.622,0,1,1,0,58.622,58.622,58.622,0,0,1,58.622,0Z" transform="translate(0 2.928) rotate(-1.431)" fill="#fff"/>
    <g id="Сгруппировать_2" data-name="Сгруппировать 2" transform="translate(23.991 23.909)">
      <g id="Сгруппировать_1" data-name="Сгруппировать 1">
        <path id="Контур_2" data-name="Контур 2" d="M1681.18,201.606a4.23,4.23,0,1,0,4.231,4.23A4.231,4.231,0,0,0,1681.18,201.606Z" transform="translate(-1626 -188.723)" fill="#604337"/>
        <path id="Контур_3" data-name="Контур 3" d="M1627.453,212.888a17.769,17.769,0,1,0,17.769,17.77A17.789,17.789,0,0,0,1627.453,212.888Zm0,29.152a11.382,11.382,0,1,1,11.382-11.382A11.4,11.4,0,0,1,1627.453,242.04Z" transform="translate(-1591.079 -194.58)" fill="#604337"/>
        <path id="Контур_4" data-name="Контур 4" d="M1621.474,246.969h-28.807a21.7,21.7,0,0,1-21.673-21.673V196.488a21.7,21.7,0,0,1,21.673-21.673h28.807a21.7,21.7,0,0,1,21.674,21.673V225.3A21.7,21.7,0,0,1,1621.474,246.969ZM1592.667,181.6a14.9,14.9,0,0,0-14.885,14.885V225.3a14.9,14.9,0,0,0,14.885,14.885h28.807A14.9,14.9,0,0,0,1636.36,225.3V196.488a14.9,14.9,0,0,0-14.886-14.885Z" transform="translate(-1570.994 -174.815)" fill="#604337"/>
      </g>
    </g>
  </g>
</svg>
