<svg id="ELEMENTS" xmlns="http://www.w3.org/2000/svg" width="119.815" height="119.814" viewBox="0 0 119.815 119.814">
  <g id="Сгруппировать_5" data-name="Сгруппировать 5" transform="translate(0 0)">
    <g id="Сгруппировать_4" data-name="Сгруппировать 4" transform="translate(0 0)">
      <path id="Контур_5" data-name="Контур 5" d="M1361.858,181.951a59.908,59.908,0,1,0-69.268,59.18V199.268h-15.211V181.951h15.211v-13.2c0-15.015,8.943-23.308,22.628-23.308a92.128,92.128,0,0,1,13.41,1.17v14.743h-7.554c-7.442,0-9.762,4.618-9.762,9.356v11.238h16.615l-2.656,17.317h-13.958V241.13A59.922,59.922,0,0,0,1361.858,181.951Z" transform="translate(-1242.043 -122.043)" fill="#fff"/>
      <path id="Контур_6" data-name="Контур 6" d="M1365.408,225.85l2.656-17.317H1351.45V197.294c0-4.738,2.32-9.356,9.763-9.356h7.554V173.2a92.132,92.132,0,0,0-13.41-1.17c-13.684,0-22.628,8.293-22.628,23.308v13.2h-15.212V225.85h15.212v41.862a60.541,60.541,0,0,0,18.721,0V225.85Z" transform="translate(-1282.181 -148.625)" fill="#604337"/>
    </g>
  </g>
</svg>
